<svg width="115" height="56" viewBox="0 0 115 56" fill="none" xmlns="http://www.w3.org/2000/svg">
<g clip-path="url(#clip0_126588_92840)">
<path d="M49.9745 15.0069C49.4278 14.4936 48.6411 14.2402 47.6278 14.2402C46.6145 14.2402 45.8345 14.4936 45.3078 15.0069C44.7811 15.5136 44.5145 16.2736 44.5145 17.2736V22.4269H37.8611C38.3678 21.7869 38.8678 21.2069 39.3611 20.6869C39.8545 20.1669 40.4678 19.5936 41.2011 18.9736V18.7202C41.2011 18.0602 41.0945 17.4536 40.8878 16.9069C40.6811 16.3602 40.3811 15.8869 39.9945 15.4936C39.6078 15.0936 39.1478 14.7936 38.6211 14.5736C38.0945 14.3536 37.5145 14.2469 36.8945 14.2469C36.2745 14.2469 35.6945 14.3536 35.1678 14.5736C34.6411 14.7936 34.1811 15.1002 33.7945 15.4936C33.4078 15.8869 33.1078 16.3602 32.9011 16.9069C32.6945 17.4536 32.5878 18.0602 32.5878 18.7202V18.9736C33.3211 19.5936 33.9345 20.1669 34.4278 20.6869C34.9211 21.2069 35.4211 21.7869 35.9278 22.4269H29.4678V14.3269H28.1345V24.7469C28.1345 25.1469 28.1011 25.4736 28.0345 25.7402C27.9678 26.0069 27.8545 26.2402 27.6945 26.4469C27.5345 26.6536 27.3145 26.8469 27.0411 27.0136C26.7678 27.1869 26.4211 27.3602 26.0078 27.5536L26.9411 28.7402C27.4345 28.4736 27.8411 28.2136 28.1745 27.9602C28.5078 27.7069 28.7678 27.4269 28.9545 27.1269C29.1411 26.8269 29.2745 26.4802 29.3478 26.0936C29.4211 25.7069 29.4611 25.2469 29.4611 24.7202V23.7269H35.2945C35.9345 23.7269 36.4678 23.5402 36.8811 23.1602C37.2945 23.5402 37.8278 23.7269 38.4678 23.7269H44.5011C44.6545 24.5402 44.9945 25.1336 45.5345 25.5136C46.0745 25.8936 46.7678 26.0802 47.6145 26.0802C49.7278 26.0802 50.7878 25.0802 50.7878 23.0802V17.2736C50.7878 16.2736 50.5145 15.5202 49.9678 15.0069H49.9745ZM36.8878 21.5802C36.5878 21.1869 36.3145 20.8402 36.0678 20.5469C35.8211 20.2536 35.5878 19.9802 35.3611 19.7269C35.1345 19.4736 34.9011 19.2269 34.6678 18.9936C34.4345 18.7602 34.1811 18.5069 33.9145 18.2402C34.0078 17.4269 34.3345 16.7802 34.8945 16.3002C35.4545 15.8202 36.1145 15.5802 36.8945 15.5802C37.6678 15.5802 38.3345 15.8202 38.8878 16.3002C39.4411 16.7802 39.7678 17.4269 39.8678 18.2402C39.6011 18.5069 39.3545 18.7536 39.1145 18.9936C38.8811 19.2269 38.6478 19.4736 38.4211 19.7269C38.1945 19.9802 37.9611 20.2536 37.7145 20.5469C37.4678 20.8402 37.1945 21.1869 36.8945 21.5802H36.8878ZM49.4611 23.0802C49.4611 23.6869 49.3145 24.1202 49.0211 24.3802C48.7278 24.6469 48.2611 24.7802 47.6211 24.7802C47.0145 24.7802 46.5678 24.6469 46.2745 24.3802C45.9811 24.1136 45.8345 23.6802 45.8345 23.0802V17.2469C45.8345 16.6402 45.9811 16.2069 46.2745 15.9469C46.5678 15.6802 47.0145 15.5469 47.6211 15.5469C48.2611 15.5469 48.7278 15.6802 49.0211 15.9469C49.3145 16.2136 49.4611 16.6469 49.4611 17.2469V23.0802Z" fill="#3A4145"/>
<path d="M2.97531 23.734H11.8086C13.662 23.734 14.582 22.7407 14.582 20.7607V14.334H11.0686C9.21531 14.334 8.29531 15.3273 8.29531 17.3073V22.434H2.94865C2.42198 22.434 2.04865 22.3073 1.84198 22.054C1.63531 21.8007 1.52865 21.3873 1.52865 20.8207V17.3073L0.195312 18.1607V20.7673C0.195312 22.7473 1.12198 23.7407 2.96865 23.7407L2.97531 23.734ZM9.62865 17.2473C9.62865 16.6807 9.73531 16.2673 9.94198 16.014C10.1486 15.7607 10.5153 15.634 11.0486 15.634H13.2553V20.814C13.2553 21.3807 13.1486 21.794 12.942 22.0473C12.7353 22.3007 12.3686 22.4273 11.8353 22.4273H9.62865V17.2473Z" fill="#3A4145"/>
<path d="M11.5296 11.8336C11.7763 11.8336 11.9829 11.7469 12.1496 11.5802C12.3229 11.4136 12.4029 11.2002 12.4029 10.9602C12.4029 10.7202 12.3162 10.5069 12.1496 10.3402C11.9829 10.1736 11.7696 10.0869 11.5296 10.0869C11.2896 10.0869 11.0763 10.1736 10.9096 10.3402C10.7429 10.5136 10.6562 10.7202 10.6562 10.9602C10.6562 11.2002 10.7429 11.4136 10.9096 11.5802C11.0829 11.7469 11.2896 11.8336 11.5296 11.8336Z" fill="#3A4145"/>
<path d="M21.2767 26.7871C20.6567 27.2805 19.6833 27.5405 18.3567 27.5805L19.2033 28.7405C20.07 28.6805 20.7833 28.5338 21.3433 28.2871C21.9033 28.0405 22.3367 27.7205 22.6567 27.3272C22.9767 26.9271 23.2033 26.4538 23.3367 25.8938C23.47 25.3338 23.5367 24.7071 23.5367 24.0138V14.3271H20.0233C18.17 14.3271 17.25 15.3205 17.25 17.3005V20.7538C17.25 22.7338 18.1767 23.7271 20.0233 23.7271H22.2033V24.4338C22.2033 25.5071 21.89 26.2938 21.27 26.7871H21.2767ZM20.0033 22.4271C19.4767 22.4271 19.1033 22.3005 18.8967 22.0471C18.69 21.7938 18.5833 21.3805 18.5833 20.8138V17.2471C18.5833 16.6805 18.69 16.2671 18.8967 16.0138C19.1033 15.7605 19.47 15.6338 20.0033 15.6338H22.21V22.4338H20.0033V22.4271Z" fill="#3A4145"/>
<path d="M6.19387 32.6735C5.46721 34.8869 4.85387 37.3802 4.09387 39.6735C3.38721 37.2335 2.94054 35.1735 2.14054 32.7335C1.88054 31.7269 0.187207 31.7069 0.207207 32.9735V45.0335H1.40054V35.6535L1.26721 33.8269L3.31387 40.4335C3.48054 40.7869 3.83387 40.9735 4.11387 40.9735C4.48721 40.9735 4.80054 40.7335 4.93387 40.3802L7.05387 33.9602L6.92721 35.6535V44.9602H6.94721V45.0335H8.14054V32.9402C8.08721 31.6535 6.56054 31.6202 6.20721 32.6802L6.19387 32.6735Z" fill="#3A4145"/>
<path d="M13.5821 31.8604C13.1555 31.8604 12.6688 32.1737 12.4821 32.7737L9.35547 45.0403H10.6421C10.8621 44.0737 11.1821 42.9004 11.8155 40.4604H15.3155L16.5088 45.0403H17.8288L14.6488 32.7604C14.5021 32.2204 13.9955 31.867 13.5888 31.867L13.5821 31.8604ZM12.0955 39.267L13.6221 33.1804L13.5821 33.0137L13.6421 33.087C13.6221 33.127 13.6221 33.1404 13.6221 33.1804L15.0155 39.267H12.0955Z" fill="#3A4145"/>
<path d="M23.6673 39.3538C24.8007 39.2071 25.674 37.8671 25.674 36.9538V34.9605C25.674 33.2471 24.4073 31.9805 22.694 31.9805H20.0873C19.454 31.9805 19.0273 32.4271 19.0273 33.0605V45.0271H20.2207V39.9671H22.3407C23.3073 39.9671 24.5207 40.7471 24.5207 41.7871V45.0271H25.7273V41.7871C25.7273 40.8538 24.9073 39.5138 23.6607 39.3471L23.6673 39.3538ZM20.2273 38.7605V33.1938H20.134C20.1873 33.1938 20.2073 33.1538 20.2273 33.1205V33.1938H22.7007C23.7073 33.1938 24.4673 33.9938 24.4673 34.9605V36.9538C24.4673 37.9805 23.314 38.7605 22.3473 38.7605H20.2273Z" fill="#3A4145"/>
<path d="M30.6806 31.8936C28.9472 31.8936 27.2539 32.9136 27.2539 34.9469V42.0736C27.2539 44.1202 28.9472 45.1469 30.6806 45.1469C32.4139 45.1469 34.1072 44.1269 34.1072 42.0736V34.9469C34.1072 32.9202 32.3939 31.8936 30.6806 31.8936ZM32.8939 42.0736C32.8939 43.3002 31.7939 43.9336 30.6806 43.9336C29.5672 43.9336 28.4472 43.3002 28.4472 42.0736V34.9469C28.4472 33.7402 29.5472 33.1069 30.6806 33.1069C31.8139 33.1069 32.8939 33.7402 32.8939 34.9469V42.0736Z" fill="#3A4145"/>
<path d="M39.2626 31.8936C37.5293 31.8936 35.8359 32.9202 35.8359 34.9469V42.0736C35.8359 44.1202 37.5293 45.1469 39.2626 45.1469C40.9959 45.1469 42.6893 44.1202 42.6893 42.0736V34.9469C42.6893 32.9202 40.9759 31.8936 39.2626 31.8936ZM41.4759 42.0736C41.4759 43.3002 40.3759 43.9336 39.2626 43.9336C38.1493 43.9336 37.0293 43.3002 37.0293 42.0736V34.9469C37.0293 33.7402 38.1293 33.1069 39.2626 33.1069C40.3959 33.1069 41.4759 33.7402 41.4759 34.9469V42.0736Z" fill="#3A4145"/>
<path d="M44.4297 33.0668V45.0335H45.643V38.9468H49.8297V37.7402H45.643V33.2535L50.1297 33.2135V32.0068H45.5164C44.9764 32.0068 44.4364 32.4535 44.4364 33.0668H44.4297Z" fill="#3A4145"/>
<path d="M86.7852 0C71.321 0 58.7852 12.5368 58.7852 28C58.7852 43.4632 71.321 56 86.7852 56C102.249 56 114.785 43.4632 114.785 28C114.785 12.5368 102.249 0 86.7852 0ZM72.1363 29.3517C71.6879 29.3517 71.3481 29.203 71.0763 28.9056C70.8046 28.6083 70.6755 28.2365 70.6755 27.7905C70.723 25.6143 71.1919 23.5597 72.0615 21.6336C72.9312 19.7075 74.1135 18.0381 75.6083 16.6256C77.103 15.2199 78.8288 14.1048 80.7924 13.287C82.6473 12.5165 84.5973 12.1313 86.6493 12.1313C86.7716 12.1313 86.8939 12.1313 87.0162 12.1313C91.4394 12.2327 95.1899 13.8344 98.2746 16.95C99.7626 18.4842 100.911 20.2279 101.706 22.181C102.501 24.1342 102.874 26.1752 102.827 28.2974C102.779 30.4736 102.344 32.5146 101.522 34.4137C100.7 36.3196 99.4976 38.0092 97.9077 39.496C96.3654 40.9761 94.626 42.1723 92.6895 42.9631C90.7531 43.7538 88.6876 44.1323 86.4998 44.1323H86.3503C86.2008 44.1323 85.8679 44.0512 85.3447 44.0039C84.8216 43.9566 84.1625 43.7944 83.3675 43.5713C83.2317 43.5308 83.0822 43.4767 82.9395 43.4294C83.5986 42.6049 84.2236 41.6992 84.5362 40.9288C85.1953 41.0437 85.8747 41.118 86.5745 41.1383C86.8735 41.1383 87.1724 41.1248 87.4714 41.1045C87.7704 41.0775 88.0421 41.064 88.2935 41.064C89.931 40.868 91.453 40.3949 92.8458 39.6515C94.2387 38.908 95.4549 37.9686 96.5012 36.8332C97.5476 35.6978 98.3629 34.4002 98.9608 32.9404C99.5588 31.4806 99.8781 29.9397 99.9324 28.3041C99.9324 26.4726 99.6063 24.756 98.9608 23.1475C98.3154 21.539 97.4049 20.1468 96.2363 18.9573C95.0676 17.7678 93.6883 16.7878 92.0984 16.0714C90.5085 15.3551 88.7963 14.9698 86.955 14.9698H86.1329C85.8339 14.9698 85.535 15.0239 85.236 15.0712C83.6461 15.2672 82.1513 15.7403 80.7653 16.4567C79.3724 17.1731 78.1562 18.1125 77.1098 19.2479C76.0635 20.3833 75.1938 21.7012 74.5755 23.1813C73.9572 24.6681 73.6039 26.2293 73.6039 27.8581V27.9324C73.6039 28.8718 73.0467 29.3449 72.1499 29.3449M86.7784 30.7101C85.27 30.7101 84.0538 29.4936 84.0538 28C84.0538 26.5064 85.27 25.2899 86.7784 25.2899C88.2867 25.2899 89.5029 26.5064 89.5029 28C89.5029 29.4936 88.2799 30.7101 86.7784 30.7101Z" fill="#E6E6E6"/>
<path d="M85.6469 32.1766C84.4901 31.8836 83.5987 31.1887 83.0679 30.1667C82.5576 29.2809 82.3943 28.293 82.5848 27.2914C82.7821 26.283 83.2925 25.4382 84.0954 24.7773L84.2996 24.6342L84.6194 24.4434C85.5925 23.8643 86.7016 23.7144 87.8312 24.0005C88.9608 24.2867 89.8658 24.9544 90.4442 25.9287L90.4987 26.0309C90.9886 26.9984 91.1179 27.9864 90.9001 28.9675C90.696 29.8669 90.2401 30.6436 89.5324 31.2773C89.3623 31.4817 89.1445 31.652 88.8927 31.8019L88.7907 31.8564C88.1715 32.1698 87.4978 32.3265 86.8105 32.3265C86.4226 32.3265 86.028 32.2788 85.6401 32.1766M83.483 2.21122C80.1419 2.65409 76.9097 3.76468 73.8748 5.51572C70.8059 7.28721 68.2065 9.57652 66.1514 12.3155C64.0896 15.0681 62.5926 18.0933 61.708 21.3092C60.8234 24.5183 60.5716 27.8774 60.9663 31.2841C61.3609 34.684 62.4361 37.9817 64.1713 41.0886C64.913 42.3354 65.8724 43.3711 67.0156 44.141C68.1929 44.9313 69.4721 45.4832 70.8263 45.7762C72.194 46.076 73.623 46.1305 75.0588 45.9397C76.4674 45.749 77.8215 45.2788 79.0736 44.5293L79.7813 44.1069C79.9446 44.0115 80.0807 43.9093 80.1895 43.8139L80.2644 43.7458C81.4892 42.7647 82.4555 41.6064 83.1292 40.3118L83.6803 39.249L84.8576 39.4465C87.5386 39.903 90.0427 39.4602 92.5197 38.0907C92.7034 37.9817 92.9143 37.8454 93.1117 37.7023C93.3702 37.5183 93.6016 37.3616 93.8262 37.2254C94.9353 36.3601 95.8472 35.3312 96.5412 34.1798C97.2557 32.9874 97.7593 31.7133 98.0383 30.3779C98.3105 29.0561 98.3445 27.6866 98.1403 26.3171C97.9362 24.9476 97.4735 23.6122 96.7794 22.3517C95.9764 20.9958 94.9421 19.8171 93.7309 18.8905C92.5265 17.9638 91.2063 17.3097 89.8114 16.935C88.4028 16.5603 86.9058 16.4581 85.3815 16.6284C83.8845 16.7987 82.4283 17.2961 81.0537 18.1137L80.346 18.5362C80.1691 18.6384 79.999 18.761 79.8289 18.9041L79.7813 18.945C78.6721 19.8103 77.7467 20.8323 77.0185 21.9974C76.2973 23.1625 75.7937 24.423 75.5147 25.7448C75.2425 27.0734 75.2017 28.4565 75.4058 29.8669C75.6032 31.25 76.0727 32.565 76.794 33.7846L76.9097 34.0026C77.6582 35.631 77.1955 37.1913 75.6984 38.0839C74.9159 38.5472 74.0653 38.663 73.2283 38.4109C72.4458 38.1724 71.8061 37.6614 71.3638 36.9256C70.1662 34.7998 69.4313 32.5582 69.1659 30.2348C68.9005 27.9114 69.0775 25.6289 69.6899 23.4486C70.3023 21.282 71.3162 19.2311 72.6976 17.3711C74.0993 15.4838 75.8754 13.9235 77.978 12.7379C82.2037 10.3532 86.7152 9.76048 91.3697 10.9937C93.656 11.6205 95.7383 12.6426 97.5891 14.0529C99.4468 15.4701 100.978 17.228 102.135 19.2856C103.312 21.3705 104.054 23.5781 104.353 25.847C104.652 28.1363 104.469 30.4665 103.802 32.7762C103.196 35.0178 102.087 37.0346 100.794 38.9355C97.8954 43.2144 96.6841 45.7013 86.6472 54C86.6472 54 89.4916 53.8569 90.7164 53.6457C92.4244 53.3527 93.9282 52.9984 95.1939 52.6032C96.446 52.2081 97.4667 51.8265 98.222 51.4518C99.2563 50.9476 99.6101 50.75 99.7326 50.675C100.699 50.1027 101.638 49.4554 102.529 48.7673C107.177 45.2379 110.307 40.598 111.838 34.9633C112.764 31.5839 113.015 28.184 112.573 24.8386C112.131 21.4864 111.042 18.2296 109.327 15.1635C107.626 12.1111 105.394 9.52883 102.699 7.4848C99.9844 5.42715 96.9087 3.89413 93.5676 2.94025C91.2948 2.31342 88.9948 2 86.7152 2C85.6333 2 84.5513 2.06813 83.4762 2.21122" fill="url(#paint0_linear_126588_92840)"/>
</g>
<defs>
<linearGradient id="paint0_linear_126588_92840" x1="60.7961" y1="27.9932" x2="112.804" y2="27.9932" gradientUnits="userSpaceOnUse">
<stop stop-color="#003CAC"/>
<stop offset="1" stop-color="#00AB8D"/>
</linearGradient>
<clipPath id="clip0_126588_92840">
<rect width="115" height="56" fill="white"/>
</clipPath>
</defs>
</svg>
