<svg width="201" height="50" viewBox="0 0 201 50" fill="none" xmlns="http://www.w3.org/2000/svg">
<g clip-path="url(#clip0_2427_73957)">
<path d="M191.188 30.142C190.938 30.6057 190.438 30.7967 189.989 30.6603C189.114 30.3875 188.24 30.0601 187.365 29.8146C186.49 29.5418 185.616 29.2691 184.766 29.0235C183.017 28.5325 181.268 28.096 179.494 27.7414H179.469C178.645 27.5777 178.07 26.7321 178.22 25.8046C178.245 25.6136 178.32 25.45 178.395 25.2863C179.27 23.595 180.169 22.0946 181.168 20.5943C182.143 19.0939 183.192 17.6754 184.317 16.3114C184.691 15.8477 185.366 15.8204 185.791 16.2296C186.141 16.5842 186.216 17.1571 186.016 17.5936C185.266 19.203 184.417 20.7579 183.567 22.2856L182.318 24.577C182.268 24.6861 182.193 24.768 182.143 24.8771C183.317 25.1772 184.467 25.5591 185.591 25.9956C186.49 26.3229 187.365 26.7321 188.24 27.1413C189.114 27.5777 189.964 28.0142 190.788 28.5325C191.288 28.8871 191.463 29.5964 191.188 30.142Z" fill="#5A539E"/>
<path d="M169.205 27.576C169.055 27.658 168.906 27.7126 168.731 27.7399H168.706C166.936 28.0951 165.19 28.5323 163.444 29.0241C162.572 29.27 161.699 29.5432 160.826 29.8164C159.953 30.0623 159.105 30.3902 158.208 30.6634C157.659 30.8274 157.085 30.4722 156.911 29.8711C156.786 29.352 156.986 28.8328 157.385 28.5596C158.208 28.0405 159.08 27.6033 159.928 27.1662C160.801 26.7563 161.674 26.3465 162.597 26.0186C163.719 25.5814 164.866 25.2263 166.038 24.8984C165.988 24.7891 165.913 24.7071 165.863 24.5978L164.616 22.3027C163.769 20.7727 162.946 19.188 162.173 17.6033C161.898 17.0568 162.098 16.3464 162.621 16.0732C163.045 15.8273 163.569 15.9366 163.868 16.3191C165.015 17.6852 166.038 19.106 167.01 20.6087C168.008 22.1115 168.93 23.6142 169.778 25.3355C170.227 26.1006 169.953 27.1388 169.205 27.576Z" fill="#532E7B"/>
<path d="M182.326 47.0431C181.794 47.2035 181.207 47.0431 180.927 46.6533C180.283 45.7822 179.668 44.911 179.024 44.017L177.177 41.3806L175.33 38.7442C175.19 38.5379 175.051 38.3545 174.911 38.1482C174.771 38.3545 174.631 38.5608 174.491 38.7442L172.644 41.3806L170.769 44.017C170.126 44.8881 169.482 45.7593 168.838 46.6304C168.503 47.066 167.775 47.2035 167.243 46.9055C166.768 46.6533 166.6 46.1719 166.796 45.7822C167.215 44.8193 167.719 43.8794 168.223 42.9166C168.726 41.9767 169.258 41.0367 169.79 40.1197C170.349 39.2027 170.909 38.2628 171.525 37.3458C172.14 36.4288 172.728 35.5348 173.511 34.6178L173.539 34.5948C174.071 33.9529 175.134 33.7925 175.918 34.228C176.114 34.3427 176.282 34.4802 176.394 34.6407C177.121 35.5806 177.737 36.4747 178.353 37.3917C178.94 38.3087 179.528 39.2257 180.059 40.1656C180.619 41.0826 181.151 42.0225 181.627 42.9624C182.13 43.9023 182.634 44.8423 183.082 45.8051C183.222 46.3095 182.942 46.8597 182.326 47.0431Z" fill="#284B8E"/>
<path d="M172.176 11.8315C171.938 10.999 171.805 10.1924 171.725 9.38587C171.646 8.57932 171.619 7.74676 171.646 6.94021C171.672 5.3011 171.805 3.66199 172.203 2.02288C172.362 1.42447 172.972 1.06022 173.556 1.21633C173.981 1.3204 174.299 1.65863 174.379 2.0489C174.777 3.68801 174.883 5.32712 174.909 6.96623C174.936 7.77278 174.883 8.60534 174.803 9.41189C174.723 10.2184 174.591 11.051 174.352 11.8575C174.166 12.456 173.529 12.7942 172.919 12.6121C172.574 12.482 172.282 12.1698 172.176 11.8315Z" fill="#76348A"/>
<path d="M196.061 37.6807C195.767 38.1711 195.177 38.3775 194.686 38.1969C193.581 37.7839 192.5 37.3452 191.371 36.9838C190.265 36.5967 189.16 36.2354 188.055 35.8998C186.999 35.5901 185.918 35.3062 184.838 35.0481C185.55 36.416 186.311 37.8097 187.048 39.2034C187.711 40.4681 188.399 41.7328 189.037 43.049C189.651 44.3653 190.29 45.6816 190.806 47.0495C191.051 47.6689 190.781 48.3916 190.167 48.6497C189.627 48.882 189.037 48.6755 188.743 48.1851L184.248 40.9585C182.75 38.5324 181.277 36.0031 180.024 33.3447C179.582 32.4414 179.951 31.3574 180.81 30.8928C181.154 30.7122 181.522 30.6605 181.866 30.738C184.298 31.1767 186.704 31.822 189.013 32.7253C190.167 33.164 191.321 33.6544 192.427 34.1964C193.532 34.7642 194.612 35.332 195.668 36.0031C196.233 36.3386 196.405 37.1129 196.061 37.6807Z" fill="#116DB4"/>
<path d="M169.819 33.3149C168.54 36.0005 167.09 38.5311 165.59 40.9585L161.115 48.189C160.771 48.7571 160.034 48.912 159.493 48.5505C159.001 48.2148 158.829 47.5951 159.05 47.0528C159.566 45.6841 160.206 44.3672 160.82 43.0502C161.46 41.759 162.123 40.4679 162.812 39.2025C163.549 37.8081 164.312 36.4137 165.025 35.045C163.943 35.3033 162.886 35.5873 161.804 35.923C160.697 36.2587 159.591 36.6202 158.485 37.0076C157.354 37.3691 156.272 37.8081 155.165 38.2213C154.551 38.4537 153.887 38.118 153.666 37.4724C153.469 36.9043 153.69 36.3104 154.157 36.0263C155.19 35.3549 156.296 34.7868 157.403 34.2187C158.509 33.6764 159.64 33.1599 160.796 32.7468C163.107 31.843 165.516 31.1974 167.95 30.7326C168.885 30.5518 169.794 31.2232 169.967 32.2045C170.04 32.5918 169.967 32.9792 169.819 33.3149Z" fill="#2A2E68"/>
<path d="M191.438 40.6409C192.317 40.9958 193.082 41.4455 193.818 41.9425C194.555 42.4395 195.264 42.9602 195.915 43.5045C197.219 44.6168 198.465 45.8238 199.372 47.2438C199.684 47.7408 199.485 48.3324 198.89 48.6164C198.465 48.8057 197.984 48.7821 197.615 48.5691H197.587C196.085 47.6698 194.725 46.6521 193.422 45.6108C192.77 45.0901 192.147 44.5458 191.523 43.9778C190.928 43.4098 190.333 42.8182 189.852 42.1318C189.512 41.6585 189.682 41.0195 190.248 40.7355C190.617 40.4989 191.07 40.4989 191.438 40.6409Z" fill="#116DB4"/>
<path d="M159.965 40.8203C159.454 41.6411 158.886 42.3486 158.29 43.0278C157.693 43.707 157.04 44.358 156.387 44.9806C155.081 46.2258 153.747 47.4428 152.214 48.5182C151.674 48.9144 150.908 48.7729 150.538 48.2352C150.255 47.839 150.255 47.3579 150.453 46.9617C151.39 45.2636 152.611 43.8202 153.917 42.4901C154.57 41.8109 155.28 41.1882 155.99 40.5939C156.728 40.0279 157.495 39.4619 158.375 39.0374C158.971 38.7261 159.709 38.9808 160.022 39.5751C160.22 40.0279 160.192 40.4807 159.965 40.8203Z" fill="#2A2E68"/>
<path d="M183 9.60447C181.924 11.9679 180.743 14.2489 179.51 16.5299C178.276 18.7834 176.991 21.0095 175.679 23.2355C175.337 23.8126 174.734 24.1424 174.104 24.1424C173.448 24.1424 172.871 23.7852 172.53 23.2355C171.244 21.0095 169.958 18.7834 168.751 16.5024C168.121 15.3757 167.517 14.2489 166.94 13.0947C166.363 11.9404 165.759 10.7862 165.208 9.60447C164.893 8.97239 165.156 8.17541 165.785 7.87311C166.31 7.59829 166.966 7.76319 167.307 8.25786C168.068 9.27469 168.777 10.374 169.512 11.4183C170.22 12.4901 170.929 13.5619 171.637 14.6337C172.477 15.9253 173.291 17.2445 174.104 18.5636C174.891 17.2445 175.731 15.9253 176.571 14.6062C177.962 12.4351 179.379 10.319 180.927 8.25786C181.347 7.68074 182.134 7.59829 182.685 8.038C183.105 8.39527 183.236 9.08232 183 9.60447Z" fill="#76348A"/>
</g>
<path d="M19.3661 31.1014C19.2875 31.75 19.1041 32.2949 18.8682 32.7619C18.6062 33.203 18.3179 33.5663 17.951 33.8257C17.5841 34.0852 17.191 34.2928 16.7193 34.3965C16.2738 34.5263 15.7759 34.5782 15.278 34.5782C14.8063 34.5782 14.3608 34.5263 13.9415 34.3965C13.5222 34.2928 13.1553 34.1111 12.8408 33.8517C12.5264 33.5922 12.3167 33.2549 12.1595 32.8398C12.0022 32.4246 11.976 31.9317 12.0546 31.3609C12.1071 31.0236 12.2119 30.6084 12.3953 30.1154C12.5788 29.6225 12.8146 29.1554 13.1291 28.7144L14.6753 29.2852C14.5442 29.5187 14.4656 29.7263 14.387 29.8819C14.3084 30.0636 14.2298 30.2192 14.1773 30.3749C14.1249 30.5306 14.0725 30.6863 14.0463 30.8419C14.0201 30.9976 13.9677 31.1533 13.9677 31.309C13.9153 31.6463 13.9415 31.9057 14.0201 32.1392C14.0987 32.3728 14.2035 32.5544 14.387 32.6841C14.5442 32.8138 14.7539 32.9176 14.9635 32.9695C15.1732 33.0214 15.409 33.0473 15.6187 33.0473C16.1952 33.0473 16.6407 32.8917 16.9814 32.6063C17.2959 32.3209 17.5055 31.8538 17.5841 31.2052L18.711 22.4873H20.5454L19.3661 31.1014Z" fill="#2A2D6A"/>
<path d="M24.3193 31.5429C24.2931 31.8024 24.2669 31.984 24.2144 32.0878C24.1882 32.1916 24.162 32.2694 24.1358 32.2694C23.7165 32.2694 23.3234 32.2434 22.9566 32.1916C22.5897 32.1397 22.249 32.0359 21.9607 31.8802C21.6725 31.7245 21.4628 31.517 21.3318 31.2315C21.2007 30.9721 21.1483 30.6348 21.2007 30.2456L22.1966 22.5137H24.031L23.1138 29.6488C23.0876 29.8564 23.0876 30.038 23.14 30.1937C23.1662 30.3494 23.2448 30.4791 23.3496 30.557C23.4545 30.6348 23.5593 30.6867 23.6903 30.7386C23.8214 30.7645 23.9524 30.7905 24.1096 30.7905C24.2144 30.7905 24.2931 30.8424 24.3455 30.9721C24.3717 31.0759 24.3717 31.2834 24.3193 31.5429Z" fill="#2A2D6A"/>
<path d="M24.162 32.2691C23.9261 32.2691 23.7689 32.2172 23.6641 32.0875C23.5593 31.9578 23.5331 31.8021 23.5593 31.5686C23.5855 31.3091 23.6641 31.1275 23.7689 30.9718C23.8737 30.8421 23.9786 30.7643 24.1358 30.7643H24.4765C24.6599 30.7643 24.7909 30.7383 24.8958 30.6605C25.0006 30.6086 25.1054 30.5048 25.1578 30.401C25.2364 30.2972 25.2889 30.1675 25.3413 30.0118C25.3937 29.8561 25.4461 29.7005 25.4985 29.4929C25.6033 28.9999 25.7606 28.5588 25.9702 28.1437C26.1799 27.7286 26.4419 27.3913 26.7302 27.1059C27.0447 26.8205 27.3853 26.5869 27.7784 26.4313C28.1715 26.2756 28.5908 26.1978 29.0363 26.1978C29.5342 26.1978 29.9797 26.2756 30.3728 26.4313C30.7397 26.5869 31.0542 26.7945 31.29 27.0799C31.5259 27.3653 31.6831 27.6767 31.7618 28.0399C31.8404 28.4032 31.8666 28.8183 31.8142 29.2594C31.788 29.441 31.7618 29.5967 31.7355 29.7524C31.7093 29.908 31.6569 30.0378 31.6045 30.1675C31.7093 30.3491 31.8404 30.4789 32.05 30.5826C32.2597 30.6864 32.4955 30.7383 32.7314 30.7383C32.8624 30.7383 32.941 30.7902 32.9672 30.9199C32.9934 31.0497 32.9934 31.2313 32.9672 31.4648C32.941 31.6205 32.9148 31.7762 32.9148 31.854C32.8886 31.9578 32.8886 32.0356 32.8624 32.0875C32.8362 32.1394 32.8362 32.1653 32.8362 32.1913C32.8362 32.2172 32.81 32.2172 32.81 32.2172C32.679 32.2172 32.5217 32.2172 32.3383 32.1913C32.1548 32.1653 31.9976 32.1135 31.8142 32.0616C31.6307 31.9837 31.4735 31.9059 31.3162 31.7762C31.159 31.6724 31.028 31.5167 30.9232 31.3351C30.5825 31.6724 30.1894 31.9059 29.7963 32.0616C29.4032 32.2172 28.9577 32.2691 28.5122 32.2691C28.0929 32.2691 27.726 32.2172 27.4115 32.1135C27.0971 32.0097 26.7826 31.8021 26.4419 31.5167C26.1799 31.8021 25.9178 31.9837 25.6819 32.0616C25.4199 32.1653 25.0792 32.2172 24.6599 32.2172H24.162V32.2691ZM28.8791 27.7545C28.6432 27.7545 28.4336 27.8324 28.2239 27.9361C28.0405 28.0659 27.8571 28.2475 27.726 28.4551C27.5688 28.6626 27.464 28.9221 27.3591 29.1816C27.2543 29.467 27.1757 29.7524 27.0971 30.0897C27.3329 30.3232 27.5426 30.5048 27.7784 30.6086C27.9881 30.7124 28.2501 30.7643 28.5122 30.7643C28.8791 30.7643 29.1936 30.6345 29.4556 30.3751C29.7177 30.1156 29.8749 29.7783 29.9273 29.3632C30.0059 28.8443 29.9273 28.4551 29.7439 28.1437C29.5604 27.8842 29.2722 27.7545 28.8791 27.7545Z" fill="#2A2D6A"/>
<path d="M32.7313 32.2691C32.4955 32.2691 32.3382 32.2172 32.2334 32.0874C32.1286 31.9577 32.1024 31.802 32.1286 31.5685C32.1548 31.3091 32.2334 31.1274 32.3382 30.9718C32.4431 30.842 32.5479 30.7642 32.7051 30.7642H33.9368C33.8058 30.5047 33.7272 30.2712 33.6485 30.0118C33.5961 29.7523 33.5699 29.4928 33.6223 29.2334C33.6748 28.7404 33.832 28.2993 34.0678 27.9101C34.3037 27.5209 34.592 27.2096 34.9326 26.9501C35.2733 26.6907 35.6664 26.509 36.0857 26.4053C36.505 26.2755 36.9243 26.2236 37.396 26.2236C37.7367 26.2236 38.1036 26.2496 38.4443 26.3015C38.7849 26.3534 39.0732 26.4312 39.3091 26.509L38.8111 27.9101C38.6801 27.8842 38.4967 27.8323 38.2346 27.8063C37.9725 27.7545 37.7105 27.7545 37.4484 27.7545C37.265 27.7545 37.0553 27.7804 36.8457 27.8323C36.636 27.8842 36.4526 27.962 36.2691 28.0658C36.0857 28.1696 35.9285 28.3253 35.7974 28.5328C35.6664 28.7145 35.5616 28.9739 35.5354 29.2593C35.483 29.7523 35.5878 30.1155 35.8761 30.4009C36.1643 30.6604 36.5836 30.8161 37.1339 30.8161H38.9684L38.7849 32.295H32.7313V32.2691Z" fill="#2A2D6A"/>
<path d="M46.6467 31.3869C46.4109 31.6983 46.0964 31.9318 45.7295 32.0615C45.3626 32.1913 44.9171 32.2691 44.393 32.2691H40.0952L40.2787 30.7902H43.7903C44.3406 30.7902 44.7337 30.6604 44.9957 30.4269C45.2578 30.1934 45.415 29.7783 45.4937 29.1815L46.3585 22.5134H48.1929L47.2757 29.4929C47.2233 29.8821 47.3281 30.1934 47.5639 30.4269C47.7998 30.6604 48.1667 30.7642 48.6122 30.7642C48.7432 30.7642 48.848 30.8161 48.8742 30.9459C48.9267 31.0496 48.9267 31.2572 48.9005 31.4907C48.848 31.8021 48.8218 32.0096 48.7956 32.0875C48.7694 32.1913 48.717 32.2432 48.6646 32.2432C48.4812 32.2432 48.2977 32.2172 48.0881 32.1913C47.8784 32.1653 47.695 32.1134 47.5115 32.0356C47.3281 31.9578 47.1708 31.8799 47.0136 31.7761C46.8826 31.6983 46.7516 31.5426 46.6467 31.3869ZM42.48 23.9923H44.3144L43.502 30.1415H41.6676L42.48 23.9923ZM42.7158 22.3837C42.611 22.1501 42.5848 21.9426 42.611 21.735C42.6634 21.3199 42.8469 21.0085 43.1351 20.7491C43.4234 20.4896 43.8165 20.3599 44.2882 20.3599C44.393 20.3599 44.524 20.3599 44.6551 20.3858C44.7861 20.4118 44.9433 20.4377 45.0744 20.4896L44.8123 21.2161C44.6289 21.1642 44.4454 21.1123 44.2096 21.1123C43.9737 21.1123 43.7903 21.1642 43.633 21.268C43.502 21.3718 43.4234 21.5274 43.3972 21.735C43.371 21.9426 43.4234 22.0982 43.5544 22.202C43.6854 22.3058 43.8689 22.3577 44.1309 22.3577H44.9433L44.8385 23.1101H42.0869L42.1917 22.3577H42.7158V22.3837Z" fill="#2A2D6A"/>
<path d="M48.6122 30.7641C48.9005 30.7641 49.1101 30.7382 49.3197 30.6863C49.5032 30.6344 49.6604 30.5565 49.7653 30.4527C49.8701 30.349 49.9487 30.2192 50.0273 30.0636C50.0797 29.9079 50.1321 29.7263 50.1583 29.5187L51.0756 22.4873H52.91L51.9404 29.856C51.8879 30.2711 51.7831 30.6084 51.6521 30.9198C51.5211 31.2052 51.3114 31.4646 51.0756 31.6722C50.8135 31.8798 50.499 32.0095 50.1059 32.1133C49.7128 32.2171 49.2411 32.269 48.6908 32.269C48.455 32.269 48.2977 32.2171 48.1929 32.0873C48.0881 31.9576 48.0619 31.8019 48.0881 31.5684C48.1143 31.309 48.1929 31.1273 48.2977 30.9717C48.3501 30.8419 48.4812 30.7641 48.6122 30.7641Z" fill="#2A2D6A"/>
<path d="M58.5706 30.1936C58.492 30.8163 58.6754 31.2833 59.1209 31.5687C59.5664 31.8801 60.274 32.0357 61.2698 32.0357C61.7153 32.0357 62.1346 32.0098 62.4753 31.9579C62.8422 31.906 63.1304 31.8282 63.3925 31.7503C63.6546 31.6465 63.8642 31.5687 63.9952 31.439C64.1263 31.3352 64.2049 31.2055 64.2311 31.1017C64.2573 30.946 64.1525 30.7644 63.9166 30.5827C63.6808 30.4011 63.3139 30.1676 62.816 29.8822C62.2918 29.5968 61.8987 29.2854 61.6367 28.9481C61.3746 28.6108 61.296 28.1957 61.3484 27.7027C61.4008 27.3654 61.5057 27.0541 61.6891 26.7427C61.8725 26.4314 62.1084 26.1719 62.3967 25.9643C62.6849 25.7308 63.0518 25.5492 63.4711 25.4195C63.8904 25.2898 64.3621 25.2119 64.8862 25.2119C64.9911 25.2119 65.1221 25.2119 65.2793 25.2379C65.4104 25.2638 65.5676 25.2638 65.7248 25.2898C65.8821 25.3157 66.0131 25.3416 66.1441 25.3676C66.2752 25.3935 66.4062 25.4195 66.511 25.4714L66.0393 26.8206C65.9345 26.7946 65.751 26.7427 65.5414 26.7168C65.3317 26.6649 65.0959 26.6649 64.86 26.6649C64.7028 26.6649 64.5456 26.6908 64.3621 26.7168C64.1787 26.7427 64.0214 26.7946 63.838 26.8725C63.6808 26.9503 63.5235 27.0281 63.4187 27.1579C63.3139 27.2876 63.2353 27.4173 63.2091 27.599C63.1828 27.7287 63.2091 27.8584 63.2877 27.9881C63.3663 28.1179 63.4449 28.2217 63.6021 28.3514C63.7332 28.4552 63.8904 28.5849 64.0476 28.6887C64.2049 28.7925 64.3883 28.8963 64.5718 28.9741C64.8076 29.1038 65.0173 29.2336 65.2269 29.3892C65.4366 29.519 65.5938 29.6746 65.751 29.8303C65.8821 29.986 66.0131 30.1676 66.0655 30.3492C66.1441 30.5309 66.1703 30.7644 66.1179 30.9979C66.0655 31.3871 65.9083 31.7503 65.6724 32.0617C65.4366 32.373 65.0959 32.6584 64.6766 32.8919C64.2573 33.1255 63.7594 33.3071 63.1566 33.4109C62.5539 33.5406 61.8987 33.5925 61.165 33.5925C60.405 33.5925 59.7236 33.5406 59.1471 33.4109C58.5706 33.2811 58.0727 33.0995 57.6796 32.8401C57.2865 32.5806 56.9982 32.2433 56.841 31.8282C56.6837 31.413 56.6313 30.92 56.7099 30.3233C56.7624 30.0119 56.8672 29.6227 57.0244 29.1557C57.1817 28.7146 57.4437 28.2476 57.7582 27.7546L59.3043 28.3514C59.1209 28.6887 58.9637 29 58.8326 29.3373C58.6754 29.6487 58.5968 29.9341 58.5706 30.1936ZM58.3871 35.5644C58.4133 35.279 58.5444 35.0714 58.754 34.8898C58.9637 34.7082 59.1995 34.6303 59.4878 34.6303C59.7761 34.6303 59.9857 34.7082 60.1167 34.8898C60.274 35.0714 60.3264 35.3049 60.3002 35.5644C60.274 35.8498 60.1429 36.0833 59.9595 36.2649C59.7499 36.4466 59.514 36.5244 59.2519 36.5244C58.9637 36.5244 58.754 36.4466 58.5968 36.2649C58.4133 36.0833 58.3347 35.8498 58.3871 35.5644ZM60.7457 35.5644C60.7719 35.279 60.9029 35.0714 61.1126 34.8898C61.3222 34.7082 61.5581 34.6303 61.8463 34.6303C62.1346 34.6303 62.3442 34.7082 62.4753 34.8898C62.6325 35.0714 62.6849 35.3049 62.6587 35.5644C62.6325 35.8498 62.5015 36.0833 62.318 36.2649C62.1084 36.4466 61.8725 36.5244 61.6105 36.5244C61.3222 36.5244 61.1126 36.4466 60.9553 36.2649C60.7719 36.0833 60.7195 35.8498 60.7457 35.5644Z" fill="#2A2D6A"/>
<path d="M69.5247 30.7644C69.9702 30.7644 70.2847 30.6866 70.5206 30.505C70.7564 30.3233 70.8875 30.012 70.9661 29.5449L71.0185 29.2076C71.0709 28.7666 70.9661 28.4033 70.704 28.1698C70.442 27.9363 70.0227 27.8066 69.4461 27.8066H68.162L68.3455 26.3276H69.9703C70.5206 26.3276 70.9923 26.3795 71.3854 26.5093C71.7785 26.639 72.0929 26.8206 72.3288 27.0541C72.5647 27.2876 72.7219 27.5471 72.8005 27.8585C72.8791 28.1698 72.9053 28.5071 72.8529 28.8704L72.7481 29.7525C72.6433 30.6347 72.3812 31.2833 71.9619 31.6725C71.5426 32.0617 70.9137 32.2693 70.0227 32.2693H66.7207L66.9041 30.7904H69.5247V30.7644Z" fill="#2A2D6A"/>
<path d="M76.3121 33.1252C76.5742 33.1252 76.81 33.1252 77.0197 33.0993C77.2293 33.0733 77.4128 33.0474 77.57 32.9695C77.7273 32.9176 77.8321 32.8139 77.9369 32.7101C78.0155 32.6063 78.0679 32.4506 78.0941 32.269H76.81C76.3645 32.269 75.9714 32.2171 75.6046 32.1133C75.2377 32.0095 74.9494 31.8279 74.7136 31.6203C74.4777 31.3868 74.2943 31.1014 74.1894 30.7382C74.0846 30.3749 74.0584 29.9598 74.137 29.4928C74.1894 29.0776 74.3205 28.6625 74.4777 28.2733C74.6611 27.8841 74.897 27.5468 75.2115 27.2355C75.5259 26.9241 75.8928 26.6906 76.3121 26.509C76.7314 26.3273 77.2293 26.2495 77.7535 26.2495C78.1466 26.2495 78.5396 26.3014 78.8803 26.4311C79.221 26.5609 79.5093 26.7425 79.7713 26.976C80.0072 27.2095 80.1906 27.5209 80.3217 27.8841C80.4265 28.2474 80.4527 28.6625 80.4003 29.1555L80.1906 30.816H81.1602C81.2913 30.816 81.3699 30.8679 81.4223 30.9976C81.4747 31.1274 81.4747 31.309 81.4485 31.5685C81.4223 31.8798 81.3699 32.0614 81.3175 32.1652C81.2913 32.269 81.2389 32.2949 81.1864 32.2949H79.9286C79.8237 32.7101 79.6665 33.0733 79.4306 33.3847C79.221 33.6701 78.9327 33.9295 78.6183 34.1112C78.3038 34.2928 77.9369 34.4225 77.5176 34.5004C77.0983 34.5782 76.6528 34.6301 76.1811 34.6301C75.919 34.6301 75.6308 34.6041 75.3163 34.5782C75.0018 34.5263 74.7398 34.5004 74.4777 34.4225L74.9232 33.0214C75.1328 33.0733 75.3425 33.0993 75.5521 33.1512C75.8142 33.1252 76.0501 33.1252 76.3121 33.1252ZM76.0501 29.2852C75.9714 29.7782 76.0501 30.1674 76.2597 30.4009C76.4694 30.6344 76.81 30.7641 77.2555 30.7641H78.3038L78.5134 29.2333C78.5396 29.0257 78.5396 28.8441 78.5396 28.6625C78.5134 28.4809 78.4872 28.3252 78.4086 28.1695C78.33 28.0138 78.2252 27.9101 78.0941 27.8322C77.9631 27.7544 77.7797 27.7025 77.5962 27.7025C77.439 27.7025 77.2818 27.7284 77.0983 27.7803C76.9411 27.8322 76.7838 27.936 76.6528 28.0657C76.5218 28.1955 76.3907 28.3511 76.2859 28.5587C76.1549 28.7663 76.0763 29.0257 76.0501 29.2852Z" fill="#2A2D6A"/>
<path d="M81.16 32.2692C80.9242 32.2692 80.767 32.2173 80.6621 32.0876C80.5573 31.9578 80.5311 31.8022 80.5573 31.5687C80.5835 31.3092 80.6621 31.1276 80.767 30.9719C80.8718 30.8422 80.9766 30.7643 81.1338 30.7643H82.549C82.811 30.7643 83.0469 30.7384 83.2565 30.7124C83.4662 30.6865 83.6234 30.6346 83.7544 30.5827C83.571 30.3492 83.4138 30.1676 83.2565 29.9859C83.0993 29.8303 82.9683 29.6746 82.811 29.5189C82.68 29.3892 82.5228 29.2595 82.3393 29.1038C82.1821 28.9741 81.9724 28.8184 81.7366 28.6886C81.7628 28.6108 81.789 28.4811 81.8414 28.3254C81.8938 28.1697 81.92 28.014 81.9724 27.8324C82.0248 27.6767 82.0773 27.5211 82.1297 27.3654C82.1821 27.2357 82.2345 27.1059 82.2607 27.054C82.4179 26.9503 82.6276 26.8465 82.8634 26.7427C83.0993 26.6389 83.3614 26.5611 83.6496 26.4573C83.9379 26.3794 84.2262 26.3016 84.5144 26.2497C84.8027 26.1978 85.091 26.1719 85.3792 26.1719C85.7985 26.1719 86.2178 26.2238 86.5847 26.3016C86.9516 26.3794 87.2661 26.5092 87.5281 26.6908C87.7902 26.8724 87.9998 27.08 88.1309 27.3394C88.2619 27.5989 88.3143 27.8843 88.2619 28.2476C88.2357 28.4811 88.1571 28.7146 88.026 28.9222C87.895 29.1557 87.764 29.3632 87.5805 29.5708C87.3971 29.7784 87.1874 29.9859 86.9516 30.1676C86.7157 30.3492 86.4537 30.5308 86.1916 30.6605C86.2964 30.6865 86.4537 30.7124 86.6371 30.7384C86.8206 30.7384 86.9778 30.7643 87.1088 30.7643H88.4715C88.6026 30.7643 88.6812 30.8162 88.7336 30.946C88.786 31.0497 88.786 31.2573 88.7598 31.5427C88.7074 31.8541 88.6812 32.0616 88.655 32.1395C88.6288 32.2173 88.5764 32.2692 88.5239 32.2692H86.6371C86.1654 32.2692 85.7723 32.2173 85.4316 32.1135C85.091 32.0097 84.8289 31.906 84.6455 31.7503C84.3048 31.906 83.9117 32.0357 83.4924 32.1135C83.0731 32.2173 82.6538 32.2692 82.2083 32.2692H81.16ZM85.1696 27.7286C85.0123 27.7286 84.8551 27.7546 84.6717 27.7805C84.5144 27.8065 84.3572 27.8324 84.1999 27.8843C84.0427 27.9103 83.9117 27.9622 83.8069 28.014C83.6758 28.0659 83.5972 28.0919 83.5448 28.1438C83.8855 28.4551 84.1737 28.7405 84.4096 29.0519C84.6455 29.3632 84.8551 29.6746 85.0385 29.9859C85.1696 29.9081 85.3268 29.8043 85.484 29.7005C85.6413 29.5968 85.7723 29.467 85.9033 29.3373C86.0344 29.2076 86.1392 29.0778 86.2178 28.9481C86.2964 28.8184 86.3488 28.6627 86.3751 28.507C86.3751 28.4292 86.3751 28.3513 86.3488 28.2476C86.3226 28.1697 86.244 28.0659 86.1654 28.014C86.0606 27.9362 85.9558 27.8843 85.7985 27.8324C85.5889 27.7546 85.4054 27.7286 85.1696 27.7286Z" fill="#2A2D6A"/>
<path d="M92.9528 32.2692C92.5073 32.2692 92.1142 32.1914 91.7997 32.0616C91.4853 31.906 91.2756 31.7244 91.1708 31.4649C90.9349 31.7503 90.5943 31.9319 90.1488 32.0876C89.7033 32.2173 89.1529 32.2952 88.4716 32.2952C88.2357 32.2952 88.0785 32.2433 87.9737 32.1135C87.8688 31.9838 87.8426 31.8281 87.8688 31.5946C87.895 31.3352 87.9737 31.1535 88.0785 30.9979C88.1833 30.8681 88.2881 30.7903 88.4454 30.7903C88.9433 30.7903 89.3102 30.7125 89.546 30.5308C89.7819 30.3752 89.9391 30.0379 89.9915 29.5708L90.2536 27.4951H92.088L91.7997 29.7265C91.7735 29.8562 91.7735 30.0119 91.7997 30.1416C91.7997 30.2714 91.8522 30.3752 91.9046 30.4789C91.957 30.5827 92.0618 30.6606 92.1666 30.7125C92.2977 30.7643 92.4549 30.7903 92.6645 30.7903C92.979 30.7903 93.2149 30.7125 93.3721 30.5568C93.5293 30.4011 93.6342 30.0638 93.7128 29.5708L93.9748 27.4951H95.8093L95.521 29.7265C95.4948 29.8562 95.4948 30.0119 95.521 30.1416C95.521 30.2714 95.5734 30.3752 95.6258 30.4789C95.6782 30.5827 95.7831 30.6606 95.8879 30.7125C96.0189 30.7643 96.1761 30.7903 96.3858 30.7903C96.7003 30.7903 96.9361 30.7125 97.0934 30.5568C97.2506 30.4011 97.3554 30.0638 97.434 29.5708L97.8533 26.3535H99.6616L99.2423 29.5189C99.1898 29.9081 99.2947 30.2195 99.5305 30.453C99.7664 30.6865 100.107 30.8162 100.579 30.8162C100.71 30.8162 100.815 30.8681 100.841 30.9979C100.893 31.1016 100.893 31.3092 100.867 31.5427C100.815 31.8541 100.788 32.0616 100.762 32.1395C100.736 32.2433 100.684 32.2952 100.631 32.2952C100.448 32.2952 100.29 32.2692 100.081 32.2433C99.8974 32.2173 99.6878 32.1654 99.5043 32.1135C99.3209 32.0357 99.1374 31.9579 98.9802 31.8541C98.823 31.7503 98.6919 31.6206 98.6133 31.4389C98.3775 31.7244 98.1154 31.9319 97.7747 32.0876C97.434 32.2173 97.0672 32.2952 96.6741 32.2952C96.2286 32.2952 95.8355 32.2173 95.5472 32.0876C95.2327 31.9319 95.0231 31.7503 94.9183 31.4908C94.4203 31.9838 93.7914 32.2692 92.9528 32.2692Z" fill="#2A2D6A"/>
<path d="M100.553 30.7641C100.841 30.7641 101.051 30.7382 101.26 30.6863C101.444 30.6344 101.601 30.5565 101.706 30.4527C101.811 30.349 101.889 30.2192 101.968 30.0636C102.02 29.9079 102.073 29.7263 102.099 29.5187L103.016 22.4873H104.85L103.881 29.856C103.828 30.2711 103.724 30.6084 103.593 30.9198C103.461 31.2052 103.252 31.4646 103.016 31.6722C102.754 31.8798 102.439 32.0095 102.046 32.1133C101.653 32.2171 101.182 32.269 100.631 32.269C100.395 32.269 100.238 32.2171 100.133 32.0873C100.028 31.9576 100.002 31.8019 100.028 31.5684C100.055 31.309 100.133 31.1273 100.238 30.9717C100.291 30.8419 100.422 30.7641 100.553 30.7641Z" fill="#2A2D6A"/>
<path d="M108.44 22.5137L107.183 32.2694H105.348L106.606 22.5137H108.44Z" fill="#2A2D6A"/>
<path d="M112.319 34.5784C112.057 34.5784 111.795 34.5524 111.586 34.5265C111.376 34.5005 111.193 34.4486 111.062 34.3968L111.481 32.9697C111.586 32.9957 111.69 32.9957 111.795 33.0216C111.9 33.0476 111.979 33.0476 112.084 33.0476C112.424 33.0476 112.686 32.9438 112.844 32.7622C113.027 32.5805 113.132 32.2432 113.184 31.8281L113.892 26.3275H115.726L115.15 30.7643H116.277C116.408 30.7643 116.486 30.8162 116.539 30.9459C116.591 31.0757 116.591 31.2573 116.565 31.5167C116.539 31.8021 116.486 32.0097 116.46 32.0876C116.434 32.1913 116.381 32.2432 116.329 32.2432H114.966C114.888 32.7103 114.757 33.0995 114.599 33.4108C114.416 33.7222 114.232 33.9557 113.97 34.1113C113.735 34.293 113.472 34.3968 113.184 34.4746C112.87 34.5524 112.608 34.5784 112.319 34.5784ZM114.18 24.0962C114.206 23.8108 114.337 23.6032 114.547 23.4216C114.757 23.2399 114.992 23.1621 115.281 23.1621C115.569 23.1621 115.779 23.2399 115.91 23.4216C116.067 23.6032 116.119 23.8108 116.093 24.0962C116.067 24.3816 115.936 24.6151 115.752 24.7967C115.543 24.9783 115.307 25.0562 115.045 25.0562C114.757 25.0562 114.547 24.9783 114.39 24.7967C114.206 24.5891 114.128 24.3556 114.18 24.0962Z" fill="#2A2D6A"/>
<path d="M116.303 32.2693C116.067 32.2693 115.91 32.2174 115.805 32.0876C115.7 31.9579 115.674 31.8022 115.7 31.5687C115.726 31.3352 115.805 31.1276 115.883 30.9979C115.988 30.8682 116.093 30.7903 116.25 30.7903H120.181C120.653 30.7903 120.994 30.6865 121.203 30.5049C121.413 30.2974 121.57 29.986 121.622 29.5709L121.675 29.2336C121.806 28.3255 121.308 27.8584 120.207 27.8584H117.298L117.482 26.3795L121.622 22.5654L122.723 23.7071L119.788 26.3795H120.862C121.387 26.3795 121.832 26.4573 122.199 26.5611C122.566 26.6909 122.854 26.8725 123.064 27.08C123.273 27.3136 123.431 27.573 123.509 27.8844C123.588 28.1957 123.588 28.533 123.562 28.8963L123.457 29.7784C123.352 30.6606 123.064 31.3093 122.644 31.6984C122.225 32.0876 121.596 32.2693 120.731 32.2693H116.303Z" fill="#2A2D6A"/>
<path d="M124.505 34.5785C124.243 34.5785 123.981 34.5525 123.771 34.5266C123.562 34.5006 123.378 34.4488 123.247 34.3969L123.666 32.9698C123.771 32.9958 123.876 32.9958 123.981 33.0217C124.086 33.0477 124.164 33.0477 124.269 33.0477C124.61 33.0477 124.872 32.9439 125.029 32.7623C125.213 32.5806 125.317 32.2433 125.37 31.8282L126.077 26.3276H127.912L127.335 30.7644H128.462C128.593 30.7644 128.672 30.8163 128.724 30.946C128.777 31.0758 128.777 31.2574 128.75 31.5168C128.724 31.8023 128.672 32.0098 128.646 32.0877C128.619 32.1914 128.567 32.2433 128.514 32.2433H127.152C127.073 32.7104 126.942 33.0996 126.785 33.4109C126.601 33.7223 126.418 33.9558 126.156 34.1115C125.92 34.2931 125.658 34.3969 125.37 34.4747C125.081 34.5525 124.793 34.5785 124.505 34.5785Z" fill="#2A2D6A"/>
<path d="M128.515 32.2691C128.279 32.2691 128.121 32.2172 128.017 32.0875C127.912 31.9578 127.886 31.8021 127.912 31.5686C127.938 31.3091 128.017 31.1275 128.121 30.9718C128.226 30.8421 128.331 30.7643 128.488 30.7643H128.829C129.012 30.7643 129.143 30.7383 129.248 30.6605C129.353 30.6086 129.458 30.5048 129.51 30.401C129.589 30.2972 129.641 30.1675 129.694 30.0118C129.746 29.8561 129.799 29.7005 129.851 29.4929C129.956 28.9999 130.113 28.5588 130.323 28.1437C130.532 27.7286 130.794 27.3913 131.083 27.1059C131.397 26.8205 131.738 26.5869 132.131 26.4313C132.524 26.2756 132.943 26.1978 133.389 26.1978C133.887 26.1978 134.332 26.2756 134.725 26.4313C135.092 26.5869 135.407 26.7945 135.643 27.0799C135.878 27.3653 136.036 27.6767 136.114 28.0399C136.193 28.4032 136.219 28.8183 136.167 29.2594C136.14 29.441 136.114 29.5967 136.088 29.7524C136.062 29.908 136.009 30.0378 135.957 30.1675C136.062 30.3491 136.193 30.4789 136.403 30.5826C136.612 30.6864 136.848 30.7383 137.084 30.7383C137.215 30.7383 137.294 30.7902 137.32 30.9199C137.346 31.0497 137.346 31.2313 137.32 31.4648C137.294 31.6205 137.267 31.7762 137.267 31.854C137.241 31.9578 137.241 32.0356 137.215 32.0875C137.189 32.1394 137.189 32.1653 137.189 32.1913C137.189 32.2172 137.163 32.2172 137.163 32.2172C137.032 32.2172 136.874 32.2172 136.691 32.1913C136.507 32.1653 136.35 32.1135 136.167 32.0616C135.983 31.9837 135.826 31.9059 135.669 31.7762C135.512 31.6724 135.381 31.5167 135.276 31.3351C134.935 31.6724 134.542 31.9059 134.149 32.0616C133.756 32.2172 133.31 32.2691 132.865 32.2691C132.445 32.2691 132.079 32.2172 131.764 32.1135C131.45 32.0097 131.135 31.8021 130.794 31.5167C130.532 31.8021 130.27 31.9837 130.034 32.0616C129.772 32.1653 129.432 32.2172 129.012 32.2172H128.515V32.2691ZM133.232 27.7545C132.996 27.7545 132.786 27.8324 132.576 27.9361C132.393 28.0659 132.21 28.2475 132.079 28.4551C131.921 28.6626 131.816 28.9221 131.712 29.1816C131.607 29.467 131.528 29.7524 131.45 30.0897C131.685 30.3232 131.895 30.5048 132.131 30.6086C132.341 30.7124 132.603 30.7643 132.865 30.7643C133.232 30.7643 133.546 30.6345 133.808 30.3751C134.07 30.1156 134.227 29.7783 134.28 29.3632C134.358 28.8443 134.28 28.4551 134.096 28.1437C133.913 27.8842 133.625 27.7545 133.232 27.7545Z" fill="#2A2D6A"/>
<path d="M137.032 30.7641C137.32 30.7641 137.53 30.7382 137.739 30.6863C137.923 30.6344 138.08 30.5565 138.185 30.4527C138.29 30.349 138.368 30.2192 138.447 30.0636C138.499 29.9079 138.552 29.7263 138.578 29.5187L139.495 22.4873H141.329L140.36 29.856C140.307 30.2711 140.203 30.6084 140.072 30.9198C139.94 31.2052 139.731 31.4646 139.495 31.6722C139.233 31.8798 138.918 32.0095 138.525 32.1133C138.132 32.2171 137.661 32.269 137.11 32.269C136.874 32.269 136.717 32.2171 136.612 32.0873C136.507 31.9576 136.481 31.8019 136.508 31.5684C136.534 31.309 136.612 31.1273 136.717 30.9717C136.77 30.8419 136.874 30.7641 137.032 30.7641Z" fill="#2A2D6A"/>
<path d="M144.919 22.5137L143.635 32.2694H141.801L143.085 22.5137H144.919Z" fill="#2A2D6A"/>
<path d="M6.52531 40.4164C6.21084 40.2867 5.87016 40.2088 5.52948 40.1569C5.1888 40.105 4.84812 40.0791 4.53365 40.0791C4.324 40.0791 4.14056 40.105 3.95711 40.131C3.77367 40.1569 3.59023 40.2088 3.43299 40.2867C3.27576 40.3645 3.14473 40.4683 3.0399 40.598C2.93508 40.7277 2.88267 40.8834 2.85646 41.091C2.83025 41.2467 2.85646 41.4023 2.90887 41.5321C2.96128 41.6618 3.06611 41.7915 3.19714 41.8953C3.32817 41.9991 3.51161 42.1288 3.72126 42.2326C3.93091 42.3364 4.19297 42.4661 4.48124 42.5959C4.84812 42.7515 5.1888 42.9332 5.47707 43.0888C5.76533 43.2705 6.02739 43.4521 6.23704 43.6856C6.44669 43.9191 6.60393 44.1786 6.68254 44.464C6.76116 44.7494 6.78737 45.1126 6.73496 45.5278C6.68255 45.9948 6.52531 46.4099 6.28945 46.7732C6.0536 47.1364 5.76533 47.4218 5.39845 47.6553C5.03156 47.8889 4.63847 48.0445 4.19297 48.1743C3.74747 48.278 3.30196 48.3299 2.83025 48.3299C2.38475 48.3299 1.91304 48.304 1.44133 48.2262C0.943418 48.1483 0.471709 48.0186 0 47.8629L0.550327 46.2802C0.969624 46.4618 1.38892 46.5916 1.80822 46.6694C2.22751 46.7472 2.62061 46.7991 2.96128 46.7991C3.48541 46.7991 3.9047 46.7213 4.21918 46.5397C4.50744 46.358 4.69088 46.0726 4.7433 45.7094C4.7695 45.5278 4.7433 45.3721 4.69088 45.2424C4.63847 45.1126 4.53365 44.9829 4.40262 44.8532C4.27159 44.7234 4.08815 44.6197 3.85229 44.4899C3.64264 44.3861 3.35438 44.2564 3.06611 44.1267C2.69922 43.971 2.38475 43.8153 2.09648 43.6337C1.80822 43.4521 1.57236 43.2445 1.36272 43.0369C1.15307 42.8034 1.02204 42.544 0.917212 42.2845C0.838594 41.9991 0.812388 41.6877 0.8648 41.3245C0.917212 40.8315 1.07445 40.4164 1.3103 40.0791C1.54616 39.7418 1.86063 39.4564 2.20131 39.2229C2.56819 38.9894 2.93508 38.8337 3.35438 38.7299C3.77367 38.6261 4.16676 38.5742 4.55985 38.5742C5.03156 38.5742 5.47707 38.6002 5.89636 38.6521C6.31566 38.7039 6.68254 38.8077 7.02322 38.9115L6.52531 40.4164Z" fill="#2A2D6A"/>
<path d="M12.5525 43.5814C12.605 43.2182 12.5001 42.9328 12.2643 42.7252C12.0284 42.5176 11.6615 42.4138 11.1374 42.4138C10.8754 42.4138 10.5871 42.4398 10.2726 42.4917C9.95814 42.5436 9.61747 42.6214 9.25058 42.7511L9.06714 41.402C9.38161 41.2982 9.7747 41.1944 10.2202 41.1165C10.6657 41.0387 11.0588 40.9868 11.4257 40.9868C12.5787 40.9868 13.4173 41.2203 13.8891 41.6874C14.3608 42.1544 14.5442 42.803 14.4132 43.6593L14.0463 46.5393C14.0201 46.7987 13.9939 47.0841 13.9677 47.3695C13.9415 47.655 13.9415 47.9144 13.9677 48.122H12.2905C12.2643 48.0182 12.2643 47.8625 12.2643 47.6809C12.2643 47.4993 12.2643 47.3695 12.2643 47.2398H12.2381C12.0284 47.5512 11.7139 47.7847 11.3471 47.9923C10.954 48.1739 10.5347 48.2777 10.063 48.2777C9.7485 48.2777 9.43402 48.2517 9.14576 48.1739C8.85749 48.096 8.59543 47.9663 8.35957 47.7847C8.12372 47.6031 7.96648 47.3955 7.86166 47.1101C7.75684 46.8506 7.73063 46.5133 7.78304 46.0982C7.86166 45.6052 8.0189 45.1901 8.28096 44.8528C8.54302 44.5414 8.9099 44.282 9.3292 44.1263C9.7485 43.9706 10.2464 43.8409 10.8229 43.789C11.3733 43.7371 11.9498 43.7112 12.5263 43.7112L12.5525 43.5814ZM12.1332 44.9306C11.8188 44.9306 11.5043 44.9566 11.216 44.9825C10.9278 45.0085 10.6657 45.0603 10.4299 45.1641C10.194 45.242 10.0106 45.3717 9.87953 45.5274C9.7485 45.6831 9.64367 45.8647 9.61747 46.0982C9.59126 46.4095 9.64367 46.6431 9.80091 46.7987C9.95814 46.9544 10.2202 47.0582 10.5347 47.0582C10.7967 47.0582 11.0326 47.0063 11.2422 46.9285C11.4519 46.8506 11.6353 46.7209 11.7926 46.5652C11.9498 46.4095 12.0546 46.2279 12.1332 46.0463C12.2119 45.8647 12.2643 45.6571 12.2905 45.4495L12.3429 44.9566H12.1332V44.9306Z" fill="#2A2D6A"/>
<path d="M20.4406 48.148L20.5717 47.214H20.5455C20.3096 47.5772 19.9951 47.8367 19.5758 48.0183C19.1565 48.1999 18.711 48.3037 18.2655 48.3037C17.8724 48.3037 17.5056 48.2518 17.1911 48.1221C16.8766 47.9923 16.6408 47.8367 16.4311 47.6032C16.2477 47.3956 16.0904 47.1102 16.0118 46.7988C15.9332 46.4875 15.907 46.1502 15.9594 45.761L16.5621 41.1426H18.4752L17.9773 45.0604C17.9511 45.3458 17.9249 45.6053 17.9511 45.8129C17.9511 46.0464 18.0035 46.228 18.0821 46.3837C18.1607 46.5394 18.2917 46.6691 18.449 46.7469C18.6062 46.8248 18.8159 46.8767 19.0779 46.8767C19.2614 46.8767 19.4448 46.8507 19.6282 46.7729C19.8117 46.695 19.9951 46.5913 20.1524 46.4615C20.3096 46.3058 20.4668 46.1242 20.5717 45.8648C20.7027 45.6053 20.7813 45.2939 20.8337 44.9307L21.3316 41.1426H23.2447L22.3275 48.148H20.4406Z" fill="#2A2D6A"/>
<path d="M30.2944 38.4185H32.2074L30.9495 48.1742H29.0889L29.1937 47.292H29.1675C28.853 47.6553 28.4861 47.9407 28.0668 48.0963C27.6475 48.252 27.2545 48.3299 26.8614 48.3299C26.3897 48.3299 25.9704 48.2261 25.6035 48.0444C25.2628 47.8628 24.9745 47.6034 24.7649 47.2661C24.5552 46.9288 24.4242 46.5396 24.3456 46.0985C24.267 45.6574 24.267 45.1904 24.3456 44.6715C24.4242 44.1525 24.529 43.6855 24.7387 43.2444C24.9221 42.8033 25.1842 42.4142 25.4724 42.0769C25.7607 41.7396 26.1276 41.4801 26.5207 41.2985C26.9138 41.1168 27.3593 41.0131 27.8572 41.0131C28.2765 41.0131 28.6434 41.0909 28.9841 41.2206C29.3247 41.3763 29.613 41.6098 29.8227 41.9471H29.8489L30.2944 38.4185ZM26.2062 44.6455C26.1538 44.9569 26.1538 45.2682 26.18 45.5277C26.2062 45.8131 26.2848 46.0466 26.3897 46.2542C26.4945 46.4617 26.6517 46.6174 26.8352 46.7212C27.0186 46.825 27.2545 46.9028 27.5427 46.9028C27.831 46.9028 28.0668 46.8509 28.3027 46.7212C28.5386 46.6174 28.7482 46.4617 28.9054 46.2542C29.0889 46.0466 29.2199 45.8131 29.3509 45.5277C29.4558 45.2423 29.5606 44.9569 29.5868 44.6196C29.6392 44.3082 29.613 43.9969 29.5868 43.7374C29.5344 43.452 29.4558 43.2185 29.3247 43.0369C29.1937 42.8293 29.0365 42.6736 28.8268 42.5698C28.6172 42.466 28.3813 42.4142 28.1193 42.4142C27.8572 42.4142 27.5951 42.466 27.3855 42.5958C27.1496 42.6996 26.9662 42.8812 26.809 43.0628C26.6517 43.2704 26.5207 43.5039 26.4159 43.7633C26.3372 44.0488 26.2586 44.3342 26.2062 44.6455Z" fill="#2A2D6A"/>
<path d="M35.6139 41.1427L34.6967 48.1482H32.7837L33.7009 41.1427H35.6139ZM35.9546 38.4443L35.745 40.0789H33.8319L34.0416 38.4443H35.9546Z" fill="#2A2D6A"/>
<path d="M41.4055 38.6777H45.3888C45.8081 38.6777 46.2012 38.7296 46.5419 38.8075C46.8826 38.8853 47.1708 39.041 47.4067 39.2226C47.6426 39.4042 47.826 39.6637 47.9308 39.975C48.0356 40.2864 48.0619 40.6496 48.0094 41.0648C47.9308 41.6615 47.7212 42.1286 47.3805 42.4659C47.0398 42.8032 46.6467 43.0626 46.2012 43.1924V43.2183C46.4633 43.2961 46.6729 43.374 46.8564 43.5037C47.0398 43.6075 47.2233 43.7632 47.3543 43.9448C47.4853 44.1264 47.5901 44.334 47.6688 44.5934C47.7212 44.8529 47.7474 45.1642 47.695 45.5015C47.6426 45.8648 47.5377 46.2021 47.3805 46.5134C47.2233 46.8248 46.9874 47.1102 46.6991 47.3437C46.4109 47.5772 46.0702 47.7848 45.6509 47.9145C45.2316 48.0443 44.7861 48.1221 44.2358 48.1221H40.1738L41.4055 38.6777ZM42.3227 46.5913H43.8951C44.1571 46.5913 44.3668 46.5653 44.5764 46.5394C44.7861 46.5134 44.9695 46.4356 45.1268 46.3578C45.284 46.254 45.415 46.1243 45.5199 45.9686C45.6247 45.8129 45.6771 45.6053 45.7295 45.3459C45.7557 45.0864 45.7295 44.8788 45.6509 44.7232C45.5723 44.5675 45.4674 44.4378 45.3102 44.334C45.153 44.2302 44.9695 44.1783 44.7337 44.1264C44.4978 44.0745 44.2358 44.0745 43.9737 44.0745H42.6372L42.3227 46.5913ZM42.8468 42.5437H44.2358C44.7599 42.5437 45.1792 42.4399 45.4937 42.2583C45.7819 42.0767 45.9654 41.7653 46.044 41.3502C46.0702 41.1167 46.044 40.935 45.9916 40.7794C45.913 40.6237 45.8343 40.5199 45.7033 40.4421C45.5723 40.3642 45.415 40.3123 45.2316 40.2864C45.0482 40.2604 44.8647 40.2345 44.6551 40.2345H43.1613L42.8468 42.5437Z" fill="#2A2D6A"/>
<path d="M53.6174 48.148L53.7484 47.214H53.7222C53.4864 47.5772 53.1719 47.8367 52.7526 48.0183C52.3333 48.1999 51.8878 48.3037 51.4423 48.3037C51.0492 48.3037 50.6823 48.2518 50.3678 48.1221C50.0534 47.9923 49.8175 47.8367 49.6079 47.6032C49.4244 47.3956 49.2672 47.1102 49.1886 46.7988C49.1099 46.4875 49.0837 46.1502 49.1362 45.761L49.7389 41.1426H51.6519L51.154 45.0604C51.1278 45.3458 51.1016 45.6053 51.1278 45.8129C51.1278 46.0464 51.1802 46.228 51.2588 46.3837C51.3375 46.5394 51.4685 46.6691 51.6257 46.7469C51.783 46.8248 51.9926 46.8767 52.2547 46.8767C52.4381 46.8767 52.6216 46.8507 52.805 46.7729C52.9884 46.695 53.1719 46.5913 53.3291 46.4615C53.4864 46.3058 53.6436 46.1242 53.7484 45.8648C53.8795 45.6053 53.9581 45.2939 54.0105 44.9307L54.5084 41.1426H56.4214L55.5042 48.148H53.6174Z" fill="#2A2D6A"/>
<path d="M62.3968 42.7772C62.0561 42.6474 61.7155 42.5436 61.401 42.4918C61.0865 42.4399 60.7983 42.4139 60.51 42.4139C60.2217 42.4139 60.0121 42.4658 59.8286 42.5436C59.6452 42.6215 59.5404 42.7772 59.5142 42.9847C59.488 43.1923 59.5666 43.348 59.7238 43.4777C59.881 43.6074 60.2217 43.7372 60.7196 43.8928C61.0865 43.9966 61.401 44.1264 61.6631 44.282C61.9251 44.4118 62.161 44.5674 62.3444 44.7491C62.5279 44.9307 62.6589 45.1383 62.7375 45.3718C62.8161 45.6053 62.8161 45.8647 62.7899 46.1761C62.7375 46.5653 62.6065 46.9026 62.3968 47.188C62.1872 47.4734 61.9251 47.681 61.6368 47.8366C61.3486 47.9923 61.0079 48.122 60.641 48.1999C60.2741 48.2777 59.9335 48.3037 59.5666 48.3037C59.1211 48.3037 58.6756 48.2518 58.2039 48.1739C57.7321 48.0961 57.3391 47.9664 56.9722 47.8107L57.5225 46.3837C57.8894 46.5393 58.2825 46.6691 58.6756 46.7729C59.0687 46.8507 59.4355 46.9026 59.7238 46.9026C60.0907 46.9026 60.379 46.8507 60.5886 46.7729C60.7983 46.6691 60.9031 46.5134 60.9555 46.2799C60.9817 46.0723 60.9031 45.9166 60.6934 45.761C60.4838 45.6312 60.1169 45.4756 59.5928 45.2939C58.859 45.0345 58.3611 44.7491 58.0466 44.4118C57.7584 44.0745 57.6273 43.6593 57.7059 43.1404C57.7584 42.7512 57.8894 42.4399 58.0728 42.1545C58.2563 41.8691 58.4921 41.6615 58.7804 41.4799C59.0687 41.2982 59.3831 41.1685 59.7238 41.0907C60.0645 41.0128 60.4052 40.9609 60.7458 40.9609C61.1127 40.9609 61.5058 40.9869 61.8989 41.0647C62.292 41.1426 62.6589 41.2204 62.9996 41.3501L62.3968 42.7772Z" fill="#2A2D6A"/>
<path d="M66.7469 41.1427L65.8297 48.1482H63.9429L64.8601 41.1427H66.7469ZM67.1138 38.4443L66.9042 40.0789H64.9911L65.2008 38.4443H67.1138Z" fill="#2A2D6A"/>
<path d="M70.4945 41.1425L70.3635 42.0766H70.3897C70.6255 41.7133 70.94 41.4538 71.3593 41.2722C71.7786 41.0906 72.2241 40.9868 72.6696 40.9868C73.0627 40.9868 73.4296 41.0387 73.744 41.1684C74.0585 41.2982 74.2944 41.4538 74.504 41.6874C74.7137 41.9209 74.8447 42.1803 74.9233 42.4917C75.0019 42.803 75.0281 43.1403 74.9757 43.5295L74.373 48.1479H72.4599L72.9578 44.2301C72.9841 43.9447 73.0103 43.6852 73.0103 43.4517C73.0103 43.2182 72.9579 43.0366 72.8792 42.8809C72.8006 42.7252 72.6696 42.6214 72.5124 42.5176C72.3551 42.4398 72.1455 42.3879 71.8834 42.3879C71.7 42.3879 71.5165 42.4138 71.3331 42.4917C71.1496 42.5695 70.9662 42.6733 70.809 42.829C70.6255 42.9847 70.4945 43.1922 70.3635 43.4517C70.2324 43.7112 70.1538 43.9966 70.1014 44.3598L69.6035 48.1479H67.6904L68.6076 41.1425H70.4945Z" fill="#2A2D6A"/>
<path d="M78.1205 45.2163C78.1205 45.5277 78.1729 45.7871 78.2777 45.9947C78.3826 46.2023 78.5136 46.3839 78.7232 46.5136C78.9067 46.6433 79.1425 46.7471 79.4046 46.825C79.6667 46.9028 79.9549 46.9288 80.2432 46.9288C80.5053 46.9288 80.7935 46.9028 81.108 46.8769C81.4225 46.825 81.7107 46.7731 81.9728 46.6952L81.999 48.0704C81.6845 48.1482 81.3439 48.2261 80.977 48.2779C80.6363 48.3298 80.2432 48.3558 79.8239 48.3558C79.195 48.3558 78.6446 48.2779 78.1729 48.0963C77.7012 47.9147 77.3081 47.6812 77.0198 47.3439C76.7316 47.0325 76.5219 46.6433 76.3909 46.2023C76.2599 45.7612 76.2337 45.2682 76.3123 44.7233C76.3909 44.2044 76.5219 43.7114 76.7578 43.2444C76.9936 42.8033 77.2557 42.4141 77.6226 42.0768C77.9633 41.7395 78.3826 41.506 78.8281 41.3244C79.2998 41.1428 79.7977 41.0649 80.348 41.0649C80.8721 41.0649 81.3176 41.1428 81.6845 41.2985C82.0514 41.4541 82.3659 41.6876 82.6017 41.999C82.8376 42.3104 82.9948 42.6736 83.0735 43.0887C83.1521 43.5039 83.1521 43.9968 83.0997 44.5158L82.9948 45.2682H78.1205V45.2163ZM80.1384 42.2585C79.6929 42.2585 79.2998 42.4141 78.9591 42.6995C78.6184 43.0109 78.4088 43.4001 78.2777 43.8931H81.3438C81.4225 43.4001 81.3439 43.0109 81.108 42.6995C80.8983 42.4141 80.5839 42.2585 80.1384 42.2585Z" fill="#2A2D6A"/>
<path d="M89.1268 42.7772C88.7861 42.6474 88.4454 42.5436 88.131 42.4918C87.8165 42.4399 87.5282 42.4139 87.24 42.4139C86.9517 42.4139 86.742 42.4658 86.5586 42.5436C86.3752 42.6215 86.2703 42.7772 86.2441 42.9847C86.2179 43.1923 86.2965 43.348 86.4538 43.4777C86.611 43.6074 86.9517 43.7372 87.4496 43.8928C87.8165 43.9966 88.131 44.1264 88.393 44.282C88.6551 44.4118 88.8909 44.5674 89.0744 44.7491C89.2578 44.9307 89.3889 45.1383 89.4675 45.3718C89.5461 45.6053 89.5461 45.8647 89.5199 46.1761C89.4675 46.5653 89.3365 46.9026 89.1268 47.188C88.9172 47.4734 88.6551 47.681 88.3668 47.8366C88.0786 47.9923 87.7379 48.122 87.371 48.1999C87.0041 48.2777 86.6634 48.3037 86.2965 48.3037C85.851 48.3037 85.4055 48.2518 84.9338 48.1739C84.4621 48.0961 84.069 47.9664 83.7021 47.8107L84.2525 46.3837C84.6194 46.5393 85.0125 46.6691 85.4055 46.7729C85.7986 46.8507 86.1655 46.9026 86.4538 46.9026C86.8207 46.9026 87.1089 46.8507 87.3186 46.7729C87.5282 46.6691 87.6331 46.5134 87.6855 46.2799C87.7117 46.0723 87.6331 45.9166 87.4234 45.761C87.2138 45.6312 86.8469 45.4756 86.3228 45.2939C85.589 45.0345 85.0911 44.7491 84.7766 44.4118C84.4883 44.0745 84.3573 43.6593 84.4359 43.1404C84.4883 42.7512 84.6194 42.4399 84.8028 42.1545C84.9862 41.8691 85.2221 41.6615 85.5104 41.4799C85.7986 41.2982 86.1131 41.1685 86.4538 41.0907C86.7945 41.0128 87.1351 40.9609 87.4758 40.9609C87.8427 40.9609 88.2358 40.9869 88.6289 41.0647C89.022 41.1426 89.3889 41.2204 89.7295 41.3501L89.1268 42.7772Z" fill="#2A2D6A"/>
<path d="M95.5736 42.7772C95.2329 42.6474 94.8922 42.5436 94.5777 42.4918C94.2633 42.4399 93.975 42.4139 93.6867 42.4139C93.3985 42.4139 93.1888 42.4658 93.0054 42.5436C92.8219 42.6215 92.7171 42.7772 92.6909 42.9847C92.6647 43.1923 92.7433 43.348 92.9006 43.4777C93.0578 43.6074 93.3985 43.7372 93.8964 43.8928C94.2633 43.9966 94.5777 44.1264 94.8398 44.282C95.1019 44.4118 95.3377 44.5674 95.5212 44.7491C95.7046 44.9307 95.8356 45.1383 95.9143 45.3718C95.9929 45.6053 95.9929 45.8647 95.9667 46.1761C95.9143 46.5653 95.7832 46.9026 95.5736 47.188C95.3639 47.4734 95.1019 47.681 94.8136 47.8366C94.5253 47.9923 94.1847 48.122 93.8178 48.1999C93.4509 48.2777 93.1102 48.3037 92.7433 48.3037C92.2978 48.3037 91.8523 48.2518 91.3806 48.1739C90.9089 48.0961 90.4896 47.9664 90.1489 47.8107L90.6993 46.3837C91.0661 46.5393 91.4592 46.6691 91.8523 46.7729C92.2454 46.8766 92.6123 46.9026 92.9006 46.9026C93.2674 46.9026 93.5557 46.8507 93.7654 46.7729C93.975 46.6691 94.106 46.5134 94.1322 46.2799C94.1585 46.0723 94.0798 45.9166 93.8702 45.761C93.6605 45.6312 93.2937 45.4756 92.7695 45.2939C92.0358 45.0345 91.5378 44.7491 91.2234 44.4118C90.9351 44.0745 90.8041 43.6593 90.8827 43.1404C90.9351 42.7512 91.0661 42.4399 91.2496 42.1545C91.433 41.8691 91.6689 41.6615 91.9571 41.4799C92.2454 41.2982 92.5599 41.1685 92.9006 41.0907C93.2412 41.0128 93.5819 40.9609 93.9226 40.9609C94.2895 40.9609 94.6826 40.9869 95.1019 41.0647C95.495 41.1426 95.8618 41.2204 96.2025 41.3501L95.5736 42.7772Z" fill="#2A2D6A"/>
<path d="M108.1 40.4161C107.864 40.3123 107.576 40.2345 107.288 40.1826C106.999 40.1307 106.711 40.0788 106.423 40.0788C105.925 40.0788 105.453 40.1566 105.034 40.3383C104.615 40.5199 104.274 40.7534 103.986 41.0648C103.698 41.3761 103.462 41.7394 103.278 42.1285C103.095 42.5437 102.964 42.9848 102.911 43.4258C102.859 43.8669 102.859 44.2821 102.938 44.6713C103.016 45.0604 103.147 45.4237 103.383 45.735C103.593 46.0464 103.881 46.2799 104.248 46.4615C104.615 46.6432 105.034 46.721 105.532 46.721C105.899 46.721 106.213 46.695 106.528 46.6172C106.842 46.5653 107.13 46.4615 107.393 46.3578L107.524 47.8626C107.157 47.9924 106.79 48.0961 106.371 48.174C105.951 48.2518 105.532 48.2778 105.113 48.2778C104.379 48.2778 103.75 48.148 103.2 47.9145C102.649 47.681 102.178 47.3437 101.811 46.9026C101.444 46.4615 101.182 45.9686 101.051 45.3718C100.893 44.775 100.867 44.1264 100.972 43.3999C101.077 42.6734 101.26 42.0248 101.549 41.428C101.837 40.8312 102.23 40.3123 102.702 39.8712C103.173 39.4302 103.724 39.0929 104.379 38.8593C105.008 38.6258 105.715 38.4961 106.475 38.4961C106.895 38.4961 107.314 38.522 107.681 38.5999C108.048 38.6518 108.388 38.7556 108.677 38.8853L108.1 40.4161Z" fill="#2A2D6A"/>
<path d="M110.59 45.2163C110.59 45.5277 110.642 45.7871 110.747 45.9947C110.852 46.2023 110.983 46.3839 111.192 46.5136C111.376 46.6433 111.612 46.7471 111.874 46.825C112.136 46.9028 112.424 46.9288 112.712 46.9288C112.974 46.9288 113.263 46.9028 113.577 46.8769C113.892 46.825 114.18 46.7731 114.442 46.6952L114.468 48.0704C114.154 48.1482 113.813 48.2261 113.446 48.2779C113.106 48.3298 112.712 48.3558 112.293 48.3558C111.664 48.3558 111.114 48.2779 110.642 48.0963C110.17 47.9147 109.777 47.6812 109.489 47.3439C109.201 47.0325 108.991 46.6433 108.86 46.2023C108.729 45.7612 108.703 45.2682 108.782 44.7233C108.86 44.2044 108.991 43.7114 109.227 43.2444C109.463 42.8033 109.725 42.4141 110.092 42.0768C110.433 41.7395 110.852 41.506 111.297 41.3244C111.769 41.1428 112.267 41.0649 112.817 41.0649C113.341 41.0649 113.787 41.1428 114.154 41.2985C114.521 41.4541 114.835 41.6876 115.071 41.999C115.307 42.3104 115.464 42.6736 115.543 43.0887C115.621 43.5039 115.621 43.9968 115.569 44.5158L115.464 45.2682H110.59V45.2163ZM112.608 42.2585C112.162 42.2585 111.769 42.4141 111.428 42.6995C111.088 43.0109 110.878 43.4001 110.747 43.8931H113.813C113.892 43.4001 113.813 43.0109 113.577 42.6995C113.394 42.4141 113.053 42.2585 112.608 42.2585Z" fill="#2A2D6A"/>
<path d="M119.343 41.1425L119.212 42.0766H119.238C119.474 41.7133 119.788 41.4538 120.207 41.2722C120.627 41.0906 121.072 40.9868 121.518 40.9868C121.911 40.9868 122.278 41.0387 122.592 41.1684C122.907 41.2982 123.143 41.4538 123.352 41.6874C123.562 41.9209 123.693 42.1803 123.771 42.4917C123.85 42.803 123.876 43.1403 123.824 43.5295L123.221 48.1479H121.308L121.806 44.2301C121.832 43.9447 121.858 43.6852 121.858 43.4517C121.858 43.2182 121.806 43.0366 121.727 42.8809C121.649 42.7252 121.518 42.6214 121.36 42.5176C121.203 42.4398 120.994 42.3879 120.732 42.3879C120.548 42.3879 120.365 42.4138 120.181 42.4917C119.998 42.5695 119.814 42.6733 119.657 42.829C119.474 42.9847 119.343 43.1922 119.212 43.4517C119.081 43.7112 119.002 43.9966 118.95 44.3598L118.452 48.1479H116.539L117.456 41.1425H119.343Z" fill="#2A2D6A"/>
<path d="M125.134 41.1425H126.209L126.444 39.2744H128.357L128.122 41.1425H129.589L129.406 42.5696H127.938L127.519 45.709C127.493 45.9426 127.466 46.1501 127.466 46.2799C127.466 46.4355 127.493 46.5393 127.545 46.6171C127.598 46.695 127.676 46.7469 127.755 46.7728C127.86 46.7988 127.991 46.8247 128.148 46.8247C128.253 46.8247 128.357 46.8247 128.462 46.7988C128.567 46.7988 128.672 46.7728 128.777 46.7469L128.593 48.148C128.41 48.1739 128.2 48.1739 127.991 48.1999C127.781 48.2258 127.571 48.2258 127.335 48.2258C126.89 48.2258 126.523 48.1739 126.261 48.0961C125.999 48.0182 125.815 47.8885 125.684 47.7069C125.553 47.5512 125.475 47.3177 125.449 47.0842C125.422 46.8247 125.449 46.5393 125.475 46.202L125.947 42.5696H124.872L125.134 41.1425Z" fill="#2A2D6A"/>
<path d="M131.764 45.2163C131.764 45.5277 131.816 45.7871 131.921 45.9947C132.026 46.2023 132.157 46.3839 132.367 46.5136C132.55 46.6433 132.786 46.7471 133.048 46.825C133.31 46.9028 133.598 46.9288 133.887 46.9288C134.149 46.9288 134.437 46.9028 134.752 46.8769C135.066 46.825 135.354 46.7731 135.616 46.6952L135.643 48.0704C135.328 48.1482 134.987 48.2261 134.621 48.2779C134.28 48.3298 133.887 48.3558 133.467 48.3558C132.839 48.3558 132.288 48.2779 131.816 48.0963C131.345 47.9147 130.952 47.6812 130.663 47.3439C130.375 47.0325 130.165 46.6433 130.034 46.2023C129.903 45.7612 129.877 45.2682 129.956 44.7233C130.034 44.2044 130.165 43.7114 130.401 43.2444C130.637 42.8033 130.899 42.4141 131.266 42.0768C131.607 41.7395 132.026 41.506 132.472 41.3244C132.943 41.1428 133.441 41.0649 133.992 41.0649C134.516 41.0649 134.961 41.1428 135.328 41.2985C135.695 41.4541 136.009 41.6876 136.245 41.999C136.481 42.3104 136.638 42.6736 136.717 43.0887C136.796 43.5039 136.796 43.9968 136.743 44.5158L136.638 45.2682H131.764V45.2163ZM133.782 42.2585C133.336 42.2585 132.943 42.4141 132.603 42.6995C132.262 43.0109 132.052 43.4001 131.921 43.8931H134.987C135.066 43.4001 134.987 43.0109 134.752 42.6995C134.542 42.4141 134.201 42.2585 133.782 42.2585Z" fill="#2A2D6A"/>
<path d="M142.614 42.4658C142.535 42.4399 142.43 42.4399 142.352 42.4139C142.273 42.4139 142.168 42.388 142.063 42.388C141.827 42.388 141.618 42.4399 141.382 42.5177C141.172 42.5955 140.963 42.7253 140.779 42.9069C140.596 43.0885 140.438 43.348 140.307 43.6334C140.176 43.9447 140.098 44.308 140.019 44.7491L139.574 48.1221H137.661L138.578 41.1166H140.438L140.307 42.0247H140.334C140.779 41.2982 141.434 40.9609 142.325 40.9609C142.404 40.9609 142.509 40.9609 142.587 40.9609C142.666 40.9609 142.771 40.9609 142.849 40.9869L142.614 42.4658Z" fill="#2A2D6A"/>
<defs>
<clipPath id="clip0_2427_73957">
<rect width="52.1679" height="47.5649" fill="white" transform="translate(148.832 1.18018)"/>
</clipPath>
</defs>
</svg>
